PathFileType	4	(X/Y/Z)	F:\MotionCapture\20160217\3\Generated_files\P_3_test01-Dynamic.trc
DataRate	CameraRate	NumFrames	NumMarkers	Units	OrigDataRate	OrigDataStartFrame	OrigNumFrames
120.00	120.00	      9	39	mm	120.00	1	      2357
Frame#	Time	Top.Head			Front.Head			Rear.Head			R.Shoulder			R.Offset			R.Elbow			R.Wrist			L.Shoulder			L.Elbow			L.Wrist			R.ASIS			L.ASIS			V.Sacral			R.Thigh			R.Knee			R.Shank			R.Ankle			R.Heel			R.Toe			L.Thigh			L.Knee			L.Shank			L.Ankle			L.Heel			L.Toe			R1			R2			R3			R4			R5			R6			R7			L1			L2			L3			L4			L5			L6			L7			V_Mid_ASIS			V_Pelvis_Origin			V_R.Hip_JC			V_L.Hip_JC			V_R.Knee_JC			V_L.Knee_JC			V_R.Ankle_JC			V_L.Ankle_JC			V_Mid_Hip			V_Mid_Shoulder			V_R.Hand			V_L.Hand			V_R.Toe_Offset_Static			V_L.Toe_Offset_Static			V_R.Toe_Offset			V_L.Toe_Offset			
		X1	Y1	Z1	X2	Y2	Z2	X3	Y3	Z3	X4	Y4	Z4	X5	Y5	Z5	X6	Y6	Z6	X7	Y7	Z7	X8	Y8	Z8	X9	Y9	Z9	X10	Y10	Z10	X11	Y11	Z11	X12	Y12	Z12	X13	Y13	Z13	X14	Y14	Z14	X15	Y15	Z15	X16	Y16	Z16	X17	Y17	Z17	X18	Y18	Z18	X19	Y19	Z19	X20	Y20	Z20	X21	Y21	Z21	X22	Y22	Z22	X23	Y23	Z23	X24	Y24	Z24	X25	Y25	Z25	X26	Y26	Z26	X27	Y27	Z27	X28	Y28	Z28	X29	Y29	Z29	X30	Y30	Z30	X31	Y31	Z31	X32	Y32	Z32	X33	Y33	Z33	X34	Y34	Z34	X35	Y35	Z35	X36	Y36	Z36	X37	Y37	Z37	X38	Y38	Z38	X39	Y39	Z39	

1	0.000	-729.70081	-2.41318	1625.44250	-698.66199	1.81466	1489.57178	-858.49451	4.29432	1642.03992	-941.58057	-184.98312	1406.33167	-1122.14929	74.27588	1299.47290	-1021.64905	-282.24286	1089.96167	-931.69727	-305.87070	848.03906	-944.51685	221.55264	1423.45349	-1062.16833	316.22522	1120.22180	-1030.72815	346.53229	867.82098	-959.96295	-127.78785	946.75726	-957.67639	161.27969	944.32507	-1184.70850	20.55633	958.89398	-925.98352	-116.69427	578.64600	-999.75568	-169.56616	470.65414	-978.77563	-113.09042	235.96407	-1028.70068	-191.73039	71.92397	-1088.06824	-126.91335	39.10160	-882.71014	-181.15620	40.20201	-909.79639	131.92990	628.57532	-992.36829	178.34746	468.44809	-969.48669	106.90115	326.80450	-1037.34607	168.64082	59.98740	-1094.66724	107.03187	40.74719	-896.32068	178.46170	39.41801	-830.96094	-163.08234	34.58652	-874.04138	-144.72433	48.22092	-971.96497	-105.36050	57.21243	-1046.68445	-99.52130	42.48793	-1062.69958	-172.63542	39.68737	-988.07587	-203.90404	32.96258	-921.49872	-222.45641	33.73397	-845.90338	157.59790	32.48392	-882.38141	140.98152	43.47719	-972.26166	87.74057	46.72595	-1053.13818	79.06638	40.90613	-1072.72314	148.98439	40.14597	-1002.52588	185.98720	33.43813	-941.44501	207.16635	36.79229	
2	0.008	-729.64679	1.17188	1625.69885	-698.36328	5.12072	1489.95874	-858.61841	7.44227	1642.31982	-941.39447	-182.18903	1406.84619	-1121.98022	76.76446	1299.08655	-1021.88434	-280.10196	1090.47070	-931.29138	-303.60284	848.48700	-944.72852	223.85614	1422.63452	-1062.45020	318.05643	1119.51147	-1031.00220	349.19165	867.29987	-960.15875	-126.31946	946.62476	-956.49792	162.60260	944.18549	-1184.57434	22.61444	958.74976	-925.23279	-115.77399	578.75006	-999.19257	-168.84424	470.72388	-978.39069	-112.70918	236.03900	-1028.61816	-191.63469	72.04004	-1087.98230	-126.68730	39.09360	-882.82007	-181.19685	40.32818	-909.35651	132.27982	628.84338	-991.29315	179.06807	468.49438	-969.07373	107.43496	326.53802	-1038.14673	169.80714	60.80302	-1094.57776	107.10447	40.66647	-896.31250	178.46281	39.38184	-831.09473	-163.18848	34.57847	-873.98792	-144.74677	48.22223	-971.81628	-105.32911	57.23842	-1046.50305	-99.36810	42.45481	-1062.81531	-172.55270	39.81187	-988.02179	-203.88510	32.98426	-921.46289	-222.35172	33.79361	-845.95105	157.59167	32.44672	-882.42255	140.89290	43.39360	-972.28046	87.68586	46.52932	-1054.01929	78.81946	40.90951	-1072.88428	149.13817	40.53300	-1002.51044	185.97592	33.45372	-941.45618	207.20302	36.82326	
3	0.017	-730.25958	4.15003	1625.82849	-697.94879	8.26086	1490.16907	-858.84302	10.43967	1642.51733	-941.95538	-180.16153	1407.16553	-1122.26086	79.02901	1298.91541	-1021.47711	-277.44125	1090.51953	-930.31348	-300.67276	848.80310	-944.74860	226.61565	1421.96826	-1062.32251	320.00256	1118.58423	-1031.36243	351.57990	866.25647	-960.42529	-125.04881	946.65063	-956.16534	164.17714	943.95880	-1184.42932	24.54269	958.69263	-924.84131	-115.20699	578.91040	-999.29767	-167.95959	470.78885	-978.27112	-112.47243	235.98683	-1028.46472	-191.49976	72.24132	-1087.97986	-126.48061	39.12573	-882.77380	-181.23285	40.37234	-908.50519	132.72441	629.07043	-990.34650	179.68808	468.26520	-968.51746	107.92370	326.36160	-1038.05090	169.78403	60.74043	-1094.62732	107.12458	40.67187	-896.26556	178.39397	39.29141	-831.07019	-163.32341	34.61489	-873.95917	-144.84956	48.28604	-971.81616	-105.27032	57.30928	-1046.40076	-99.20222	42.39717	-1062.82617	-172.48024	39.88147	-988.03784	-203.77826	33.18802	-921.35687	-222.18686	33.85286	-845.95782	157.59491	32.44141	-882.35443	140.82753	43.26983	-972.36230	87.52428	46.41385	-1053.24109	79.06873	40.79850	-1072.82043	149.09505	40.51377	-1002.46161	185.96562	33.55626	-941.43829	207.16228	36.85112	
4	0.025	-730.44409	7.45070	1626.22266	-698.72223	10.70343	1490.40588	-859.32867	13.70283	1642.89685	-941.94183	-177.49916	1407.78442	-1122.31958	81.31323	1298.62988	-1021.76807	-275.51083	1090.99719	-929.86829	-297.79886	849.32349	-945.19855	229.15344	1420.98706	-1061.85059	321.79388	1117.54114	-1031.16431	353.31900	865.81995	-960.75446	-123.31707	946.49152	-955.91486	165.13394	944.03522	-1184.48230	26.38983	958.51550	-924.51331	-114.16282	578.75079	-998.96106	-167.27817	470.84955	-978.16724	-112.27442	235.95250	-1029.09485	-191.67963	72.84389	-1088.00366	-126.21368	39.27826	-882.82806	-181.24991	40.46055	-907.77240	132.94931	629.26593	-989.58807	180.43373	468.21494	-968.04126	108.21919	326.24582	-1037.90491	169.83073	60.68938	-1094.61792	107.13394	40.68224	-896.16516	178.33087	39.36458	-831.21564	-163.54395	34.70039	-874.00208	-144.84348	48.35388	-971.67255	-105.18496	57.40545	-1046.16968	-99.02390	42.38294	-1062.95618	-172.56729	40.01792	-988.01550	-203.61649	33.39294	-921.37146	-222.01427	33.98622	-845.92401	157.55426	32.47661	-882.27875	140.75864	43.19846	-972.42206	87.40616	46.25862	-1054.04102	78.79743	40.85527	-1072.84827	149.13736	40.54805	-1002.45612	185.92207	33.59101	-941.31909	207.05136	36.82082																																																	-800.76868	-116.37782	1226.65796	
5	0.033	-730.77521	10.59704	1626.39746	-698.80261	13.56178	1490.42334	-859.84314	16.36241	1643.03943	-942.99323	-175.55997	1407.93628	-1122.70154	83.25546	1298.27234	-1021.71301	-273.13779	1090.93152	-929.13110	-294.38916	849.79138	-945.22443	231.65009	1421.22705	-1061.90332	323.68234	1116.87024	-1031.56506	355.75507	865.11029	-960.91473	-122.10761	946.27075	-954.90967	166.94653	943.64703	-1184.18066	28.23284	958.39429	-924.27686	-113.59258	578.80048	-998.11359	-166.38443	470.91534	-977.56281	-111.74120	236.00217	-1029.25000	-191.53262	73.07586	-1088.06873	-126.00877	39.44578	-882.86053	-181.19006	40.51301	-907.00677	133.25925	629.42950	-988.77704	180.97792	467.91504	-967.51508	108.62105	326.15216	-1037.85193	169.85484	60.66843	-1094.51697	107.18892	40.66026	-896.08386	178.29796	39.34990	-831.30426	-163.61708	34.76022	-873.92474	-144.89151	48.37532	-971.51501	-105.08960	57.46306	-1045.92822	-98.83524	42.29850	-1062.93396	-172.31909	40.24945	-987.95886	-203.42247	33.60279	-921.29169	-221.84937	34.12716	-845.75366	157.42604	32.49586	-882.12018	140.64090	43.03575	-972.45636	87.27073	46.10605	-1053.96899	78.72030	40.86381	-1072.83069	149.14037	40.58496	-1002.46326	185.92619	33.67529	-941.25281	206.99939	36.82201	
6	0.042	-731.28387	13.10447	1626.72070	-699.78418	16.15365	1490.88293	-860.27594	18.97065	1643.08508	-942.48340	-172.79761	1408.59485	-1122.33301	85.54918	1297.93066	-1021.94226	-270.93091	1091.31726	-928.40344	-291.13205	850.20203	-945.66705	234.01051	1420.50330	-1062.00183	325.33551	1116.33423	-1031.18091	357.40775	864.42212	-961.18201	-121.06239	946.35590	-955.39026	168.39474	943.55188	-1184.03589	30.05996	958.21094	-923.14667	-112.89895	578.89691	-997.35834	-165.52068	470.83771	-976.78479	-110.99972	236.17996	-1029.19849	-191.35838	73.13616	-1088.12976	-125.82998	39.60186	-882.85956	-181.20131	40.57860	-907.37030	133.62373	629.35120	-988.14508	181.71564	467.84265	-967.32184	108.87871	326.00443	-1037.76184	169.94031	60.70818	-1094.52783	107.18771	40.65126	-896.09064	178.23151	39.33255	-831.32489	-163.68913	34.80592	-873.96204	-144.91904	48.42083	-971.40027	-105.02493	57.49741	-1045.88965	-98.74650	42.33141	-1062.94312	-172.06358	40.53014	-987.91644	-203.28860	33.78049	-921.21625	-221.65538	34.20643	-845.78241	157.40479	32.45173	-881.97266	140.55910	42.95533	-972.55383	87.13555	45.97564	-1053.96631	78.78951	40.85559	-1072.73608	149.12083	40.54739	-1002.41711	185.87323	33.79441	-941.09583	206.87933	36.88585	
7	0.050	-731.23175	16.03905	1626.88037	-699.06177	18.86061	1491.44214	-860.33789	21.91990	1643.18799	-943.18512	-170.61108	1408.74426	-1122.48352	87.58147	1297.68689	-1021.59637	-268.35986	1091.36536	-927.26337	-288.18478	850.46210	-945.40112	236.13243	1419.70642	-1062.62500	327.53476	1115.52881	-1031.60376	359.60922	863.92737	-961.99646	-119.57714	946.63489	-954.32922	169.77258	943.41309	-1183.98657	31.87340	958.05719	-922.40576	-111.95423	578.85931	-997.02960	-165.05525	470.81854	-976.75507	-110.67991	236.11356	-1029.03540	-191.10803	73.37579	-1088.14844	-125.67574	39.75080	-882.86261	-181.17162	40.62773	-907.71674	134.06812	629.27826	-987.72876	182.52121	467.67706	-967.32611	108.98442	325.95462	-1037.66296	169.92787	60.69717	-1094.48120	107.18401	40.58799	-896.02197	178.20464	39.31211	-831.26904	-163.83762	34.81717	-873.97296	-144.99423	48.40826	-971.30249	-104.89508	57.55415	-1045.85168	-98.54187	42.40466	-1062.79480	-171.79178	40.67820	-987.89117	-203.16481	33.91598	-921.34955	-221.53770	34.27185	-845.80066	157.38577	32.47478	-881.97845	140.44745	42.94076	-972.61151	86.97963	45.82285	-1053.96594	78.70972	40.82740	-1072.75366	149.10022	40.53434	-1002.46234	185.83559	33.83117	-941.09570	206.82076	36.90095	
8	0.058	-732.31201	18.77301	1627.36169	-699.79541	21.42691	1491.76965	-860.73083	24.08458	1643.10474	-943.03540	-168.34866	1409.24963	-1122.50916	89.64143	1297.50073	-1021.82251	-266.16159	1091.69092	-926.68494	-285.30759	851.05865	-945.56055	238.41074	1419.05212	-1062.65393	329.18640	1115.12427	-1031.27820	361.26270	863.65912	-961.55725	-118.55371	946.00275	-953.64777	170.60693	943.34528	-1183.60474	33.56440	957.70062	-922.20831	-111.53020	578.99274	-996.24518	-164.31700	470.93091	-976.25183	-110.27268	236.09787	-1028.93909	-190.92635	73.50635	-1088.06372	-125.54730	39.92756	-882.87384	-181.12154	40.72196	-907.22607	134.44894	629.19745	-987.47748	183.03679	467.50925	-967.24182	109.29615	325.81897	-1037.60144	170.08655	60.70958	-1094.47278	107.21591	40.60225	-895.95697	178.14462	39.35363	-831.27643	-163.82222	34.80771	-873.91644	-145.02937	48.45460	-971.23932	-104.82694	57.60404	-1045.68860	-98.35986	42.50274	-1062.62097	-171.52003	40.83139	-987.93530	-203.09552	33.98363	-921.30865	-221.33534	34.37300	-845.81616	157.38158	32.47931	-881.87335	140.43571	42.90334	-972.59790	86.90081	45.74008	-1053.90601	78.69778	40.80576	-1072.69482	149.07979	40.52156	-1002.39813	185.81355	33.83193	-940.98694	206.74179	36.94695	
9	0.067	-732.35638	21.25494	1627.33350	-699.74725	23.86022	1492.02808	-861.00745	26.80274	1643.36194	-943.89789	-166.31000	1409.83728	-1122.81067	91.70742	1297.34216	-1021.62506	-263.96121	1091.60974	-925.38983	-281.77335	851.37439	-945.71765	240.69624	1418.94421	-1062.36938	331.11127	1114.41650	-1031.34082	363.56754	862.91565	-961.93311	-117.59027	946.03668	-952.99268	172.04106	943.28705	-1183.62903	35.34135	957.41656	-921.66913	-110.93969	579.58264	-995.71143	-163.50345	471.16794	-975.87280	-110.02828	236.20781	-1028.66516	-190.71658	73.63200	-1087.75293	-125.28422	40.11565	-882.84161	-181.14546	40.83902	-906.75354	135.17787	629.25598	-987.02991	183.46651	467.34894	-967.11340	109.58124	325.81628	-1037.62793	170.05507	60.69341	-1095.07788	106.99178	41.05623	-895.97076	178.14595	39.35423	-831.20734	-163.88132	34.83387	-873.88568	-145.01367	48.48904	-971.17059	-104.78697	57.65121	-1045.60852	-98.15771	42.71958	-1062.52979	-171.29593	41.05505	-987.98157	-203.05006	34.06084	-921.30255	-221.23701	34.52977	-845.82465	157.37680	32.48603	-881.89166	140.38838	42.90485	-972.65601	86.78790	45.70798	-1053.88977	78.69972	40.83546	-1072.69897	149.07878	40.52060	-1002.44897	185.83345	33.89547	-940.88953	206.68173	37.02463	
